# xmcd CD database file
#
# Track frame offsets:
#	150
#	19283
#	34481
#	63859
#	81502
#	97564
#	108580
#	122159
#	138227
#	162374
#	177913
#	196205
#	215706
#	235731
#	256905
#	272507
#	295431
#	310118
#	331364
#
# Disc length: 4624 seconds
#
# Revision: 0
# Processed by: cddbd v1.5.2PL0 Copyright (c) Steve Scherf et al.
# Submitted via: CDex 1.51
#
DISCID=13120e13
DTITLE=Foxboro High School Jazz Ensembles - A Symphony in Riffs
DYEAR=2011
DGENRE=Jazz
TTITLE0=Symphony In Riffs
TTITLE1=Blue Ramble
TTITLE2=Latin American Sunshine
TTITLE3=Jumpin' Pumpkins
TTITLE4=Blue Serge
TTITLE5=Don't Get Around Much Anymore
TTITLE6=Anitra's Dance
TTITLE7=I'm Just a Lucky So and So
TTITLE8=Moon Over Cuba
TTITLE9=Boy Meets Horn
TTITLE10=The Star-Crossed Lovers
TTITLE11=Tippin' on the QT
TTITLE12=Movin' Uptown
TTITLE13=Lady Mac
TTITLE14=After All
TTITLE15=Feet Bone
TTITLE16=Bli-Blip
TTITLE17=Prelude to a Kiss
TTITLE18=New Musical Express
EXTD=YEAR: 2011
EXTT0=
EXTT1=
EXTT2=
EXTT3=
EXTT4=
EXTT5=
EXTT6=
EXTT7=
EXTT8=
EXTT9=
EXTT10=
EXTT11=
EXTT12=
EXTT13=
EXTT14=
EXTT15=
EXTT16=
EXTT17=
EXTT18=
PLAYORDER=
